<?xml version="1.0" encoding="UTF-8" standalone="no"?>
<svg width="364px" height="61px" viewBox="0 0 364 61" version="1.1" xmlns="http://www.w3.org/2000/svg" xmlns:xlink="http://www.w3.org/1999/xlink" xmlns:sketch="http://www.bohemiancoding.com/sketch/ns">
    <!-- Generator: Sketch 3.3.2 (12043) - http://www.bohemiancoding.com/sketch -->
    <title>Logo Text</title>
    <desc>Created with Sketch.</desc>
    <defs></defs>
    <g id="Page-1" stroke="none" stroke-width="1" fill="none" fill-rule="evenodd" sketch:type="MSPage">
        <g id="Landing-Page" sketch:type="MSArtboardGroup" transform="translate(-620.000000, -260.000000)">
            <g id="Header" sketch:type="MSLayerGroup" transform="translate(520.000000, 140.000000)">
                <g id="Logo-Text" transform="translate(100.000000, 120.000000)" sketch:type="MSShapeGroup">
                    <path d="M97.6303711,60 L97.6303711,1.17675781 L102.825684,1.17675781 L102.825684,55.8300781 L119.266113,55.8300781 L119.266113,60 L97.6303711,60 Z M129.48584,41.2353516 L141.790527,41.2353516 L135.604004,6.57714844 L129.48584,41.2353516 Z M125.862793,60 L120.633301,60 L132.254395,1.17675781 L139.021973,1.17675781 L150.643066,60 L145.379395,60 L142.439941,44.6875 L128.870605,44.6875 L125.862793,60 Z M156.351074,45.5419922 L156.351074,1.17675781 L161.546387,1.17675781 L161.546387,46.7382812 C161.546387,50.1106939 162.309725,52.6228759 163.836426,54.2749023 C165.363126,55.9269288 167.93797,56.7529297 171.561035,56.7529297 C174.979021,56.7529297 177.417148,55.9212323 178.875488,54.2578125 C180.333829,52.5943927 181.062988,50.0879074 181.062988,46.7382812 L181.062988,1.17675781 L186.224121,1.17675781 L186.224121,45.5419922 C186.224121,55.7959497 181.336475,60.9228516 171.561035,60.9228516 C169.214018,60.9228516 167.146168,60.6494168 165.357422,60.1025391 C163.568676,59.5556613 162.110357,58.8208054 160.982422,57.8979492 C159.854487,56.975093 158.937341,55.8471746 158.230957,54.5141602 C157.524573,53.1811457 157.034669,51.7911856 156.76123,50.3442383 C156.487792,48.8972909 156.351074,47.2965583 156.351074,45.5419922 L156.351074,45.5419922 Z M195.931152,60 L195.931152,1.17675781 L199.930176,1.17675781 L218.558105,47.7636719 L218.558105,1.17675781 L222.967285,1.17675781 L222.967285,60 L219.070801,60 L200.408691,14.4042969 L200.408691,60 L195.931152,60 Z M231.854004,42.9443359 L231.854004,18.3007812 C231.854004,16.2044166 231.990721,14.3017664 232.26416,12.5927734 C232.537599,10.8837805 233.021806,9.25456504 233.716797,7.70507812 C234.411787,6.15559121 235.306147,4.85107952 236.399902,3.79150391 C237.493658,2.7319283 238.889314,1.89453433 240.586914,1.27929688 C242.284514,0.664059424 244.249826,0.356445312 246.48291,0.356445312 C255.688685,0.356445312 260.291504,6.33783081 260.291504,18.3007812 L260.291504,20.6933594 L255.335449,20.6933594 L255.335449,17.1386719 C255.335449,15.2473864 255.193035,13.5725984 254.908203,12.1142578 C254.623371,10.6559172 254.150557,9.34001238 253.489746,8.16650391 C252.828935,6.99299543 251.91179,6.09293933 250.738281,5.46630859 C249.564773,4.83967786 248.14633,4.52636719 246.48291,4.52636719 C244.978996,4.52636719 243.668788,4.73713982 242.552246,5.15869141 C241.435704,5.58024299 240.529951,6.15559531 239.834961,6.88476562 C239.13997,7.61393594 238.581708,8.52538516 238.160156,9.61914062 C237.738605,10.7128961 237.44808,11.8579042 237.288574,13.0541992 C237.129068,14.2504943 237.049316,15.6119715 237.049316,17.1386719 L237.049316,44.1064453 C237.049316,46.043304 237.186034,47.7237885 237.459473,49.1479492 C237.732912,50.57211 238.205726,51.8823182 238.87793,53.0786133 C239.550134,54.2749083 240.524245,55.1863575 241.800293,55.8129883 C243.076341,56.439619 244.637198,56.7529297 246.48291,56.7529297 C248.14633,56.7529297 249.564773,56.439619 250.738281,55.8129883 C251.91179,55.1863575 252.828935,54.2806049 253.489746,53.0957031 C254.150557,51.9108014 254.623371,50.5892 254.908203,49.1308594 C255.193035,47.6725187 255.335449,45.9977308 255.335449,44.1064453 L255.335449,40.0732422 L260.291504,40.0732422 L260.291504,42.9443359 C260.291504,45.017914 260.16618,46.9091711 259.915527,48.6181641 C259.664875,50.327157 259.214847,51.962069 258.56543,53.5229492 C257.916012,55.0838294 257.078618,56.3940377 256.053223,57.4536133 C255.027827,58.5131889 253.706226,59.3562794 252.088379,59.9829102 C250.470532,60.6095409 248.602061,60.9228516 246.48291,60.9228516 C244.204253,60.9228516 242.204761,60.6095409 240.484375,59.9829102 C238.763989,59.3562794 237.362636,58.5131889 236.280273,57.4536133 C235.197911,56.3940377 234.320641,55.0838294 233.648438,53.5229492 C232.976234,51.962069 232.509116,50.3328535 232.24707,48.6352539 C231.985025,46.9376543 231.854004,45.0407006 231.854004,42.9443359 L231.854004,42.9443359 Z M268.221191,60 L268.221191,1.17675781 L273.416504,1.17675781 L273.416504,27.8027344 L291.531738,27.8027344 L291.531738,1.17675781 L296.727051,1.17675781 L296.727051,60 L291.531738,60 L291.531738,31.4257812 L273.416504,31.4257812 L273.416504,60 L268.221191,60 Z M306.70752,60 L306.70752,1.17675781 L327.215332,1.17675781 L327.215332,5.34667969 L311.902832,5.34667969 L311.902832,27.6318359 L322.840332,27.6318359 L322.840332,31.5625 L311.902832,31.5625 L311.902832,55.8300781 L327.215332,55.8300781 L327.215332,60 L306.70752,60 Z M339.075684,27.1191406 L349.534668,27.1191406 C351.015795,27.1191406 352.269038,26.8229196 353.294434,26.2304688 C354.319829,25.6380179 355.088865,24.7949273 355.601562,23.7011719 C356.11426,22.6074164 356.473144,21.4681049 356.678223,20.2832031 C356.883302,19.0983014 356.98584,17.7425207 356.98584,16.2158203 C356.98584,14.9625588 356.923178,13.8346404 356.797852,12.8320312 C356.672525,11.8294221 356.444663,10.8496142 356.114258,9.89257812 C355.783853,8.93554209 355.345218,8.13232747 354.79834,7.48291016 C354.251462,6.83349285 353.533696,6.3151061 352.64502,5.92773438 C351.756343,5.54036265 350.71957,5.34667969 349.534668,5.34667969 L339.075684,5.34667969 L339.075684,27.1191406 Z M333.880371,60 L333.880371,1.17675781 L349.568848,1.17675781 C351.551279,1.17675781 353.294426,1.45019258 354.79834,1.99707031 C356.302254,2.54394805 357.51562,3.26741086 358.438477,4.16748047 C359.361333,5.06755007 360.107582,6.18407537 360.677246,7.51708984 C361.24691,8.85010432 361.639973,10.2286713 361.856445,11.652832 C362.072918,13.0769928 362.181152,14.6549393 362.181152,16.3867188 C362.181152,23.883501 359.446805,28.6344301 353.978027,30.6396484 L363.069824,60 L357.532715,60 L348.953613,31.2890625 L339.075684,31.2890625 L339.075684,60 L333.880371,60 Z" id="LAUNCHER" fill="#2BD5A7"></path>
                    <path d="M5.20605469,29.6826172 L14.9814453,29.7167969 C17.8981266,29.7395834 19.9830667,28.7312927 21.2363281,26.6918945 C22.4895896,24.6524963 23.1162109,21.4567275 23.1162109,17.1044922 C23.1162109,13.0484823 22.4440171,10.0748792 21.0996094,8.18359375 C19.7552016,6.29230825 17.715834,5.34667969 14.9814453,5.34667969 L5.20605469,5.34667969 L5.20605469,29.6826172 Z M0.0107421875,60 L0.0107421875,1.17675781 L14.4003906,1.17675781 C16.4511821,1.17675781 18.2740806,1.45588914 19.8691406,2.01416016 C21.4642007,2.57243118 22.7858021,3.33007334 23.8339844,4.28710938 C24.8821667,5.24414541 25.7480435,6.40624316 26.4316406,7.7734375 C27.1152378,9.14063184 27.5994452,10.5818609 27.8842773,12.097168 C28.1691095,13.612475 28.3115234,15.2473871 28.3115234,17.0019531 C28.3115234,18.8020923 28.1918957,20.4654872 27.9526367,21.9921875 C27.7133777,23.5188878 27.2690462,25.0341722 26.6196289,26.5380859 C25.9702116,28.0419997 25.1385142,29.3123321 24.1245117,30.3491211 C23.1105093,31.3859101 21.7718182,32.2290007 20.1083984,32.878418 C18.4449787,33.5278353 16.5309353,33.8525391 14.3662109,33.8525391 L5.20605469,33.8525391 L5.20605469,60 L0.0107421875,60 Z M39.5224609,27.1191406 L49.9814453,27.1191406 C51.4625725,27.1191406 52.7158152,26.8229196 53.7412109,26.2304688 C54.7666067,25.6380179 55.535642,24.7949273 56.0483398,23.7011719 C56.5610377,22.6074164 56.9199208,21.4681049 57.125,20.2832031 C57.3300792,19.0983014 57.4326172,17.7425207 57.4326172,16.2158203 C57.4326172,14.9625588 57.3699551,13.8346404 57.2446289,12.8320312 C57.1193028,11.8294221 56.8914405,10.8496142 56.5610352,9.89257812 C56.2306299,8.93554209 55.7919949,8.13232747 55.2451172,7.48291016 C54.6982395,6.83349285 53.9804732,6.3151061 53.0917969,5.92773438 C52.2031206,5.54036265 51.1663471,5.34667969 49.9814453,5.34667969 L39.5224609,5.34667969 L39.5224609,27.1191406 Z M34.3271484,60 L34.3271484,1.17675781 L50.015625,1.17675781 C51.9980568,1.17675781 53.7412034,1.45019258 55.2451172,1.99707031 C56.749031,2.54394805 57.9623977,3.26741086 58.8852539,4.16748047 C59.8081101,5.06755007 60.5543591,6.18407537 61.1240234,7.51708984 C61.6936877,8.85010432 62.0867502,10.2286713 62.3032227,11.652832 C62.5196951,13.0769928 62.6279297,14.6549393 62.6279297,16.3867188 C62.6279297,23.883501 59.893582,28.6344301 54.4248047,30.6396484 L63.5166016,60 L57.9794922,60 L49.4003906,31.2890625 L39.5224609,31.2890625 L39.5224609,60 L34.3271484,60 Z M70.796875,60 L70.796875,1.17675781 L91.3046875,1.17675781 L91.3046875,5.34667969 L75.9921875,5.34667969 L75.9921875,27.6318359 L86.9296875,27.6318359 L86.9296875,31.5625 L75.9921875,31.5625 L75.9921875,55.8300781 L91.3046875,55.8300781 L91.3046875,60 L70.796875,60 Z" id="PRE" fill="#FFFFFF"></path>
                </g>
            </g>
        </g>
    </g>
</svg>