<?xml version="1.0" encoding="UTF-8" standalone="no"?>
<svg width="136px" height="32px" viewBox="0 0 136 32" version="1.1" xmlns="http://www.w3.org/2000/svg" xmlns:xlink="http://www.w3.org/1999/xlink" xmlns:sketch="http://www.bohemiancoding.com/sketch/ns">
    <!-- Generator: Sketch 3.3.2 (12043) - http://www.bohemiancoding.com/sketch -->
    <title>logo</title>
    <desc>Created with Sketch.</desc>
    <defs></defs>
    <g id="Page-1" stroke="none" stroke-width="1" fill="none" fill-rule="evenodd" sketch:type="MSPage">
        <g id="Admin-Profile" sketch:type="MSArtboardGroup" transform="translate(-149.000000, -14.000000)">
            <g id="Nav" sketch:type="MSLayerGroup">
                <g id="logo" transform="translate(150.000000, 15.000000)" sketch:type="MSShapeGroup">
                    <g id="Logo">
                        <path d="M0,30 L0,20 L30,20 L30,30" id="Rectangle-3-Copy-3" stroke="#FFFFFF" stroke-width="2" transform="translate(15.000000, 25.000000) scale(1, -1) translate(-15.000000, -25.000000) "></path>
                        <path d="M0,10 L0,0 L30,0 L30,10" id="Rectangle-3-Copy-2" stroke="#FFFFFF" stroke-width="2"></path>
                        <path d="M10.3803711,14.2709961 L13.0336914,14.2802734 C13.825362,14.2864584 14.3912743,14.0127795 14.7314453,13.4592285 C15.0716163,12.9056776 15.2416992,12.0382546 15.2416992,10.8569336 C15.2416992,9.75601663 15.0592466,8.9488958 14.6943359,8.43554688 C14.3294253,7.92219795 13.7758826,7.66552734 13.0336914,7.66552734 L10.3803711,7.66552734 L10.3803711,14.2709961 Z M8.97021484,22.5 L8.97021484,6.53369141 L12.8759766,6.53369141 C13.43262,6.53369141 13.9274067,6.60945562 14.3603516,6.76098633 C14.7932964,6.91251703 15.1520168,7.11816276 15.4365234,7.37792969 C15.7210301,7.63769661 15.9560538,7.95312314 16.1416016,8.32421875 C16.3271494,8.69531436 16.4585771,9.0865051 16.5358887,9.49780273 C16.6132003,9.90910036 16.6518555,10.3528622 16.6518555,10.8291016 C16.6518555,11.3177108 16.6193851,11.7692037 16.5544434,12.1835938 C16.4895016,12.5979838 16.3688974,13.0092753 16.192627,13.4174805 C16.0163565,13.8256856 15.7906101,14.1704901 15.5153809,14.4519043 C15.2401516,14.7333185 14.8767926,14.9621573 14.425293,15.1384277 C13.9737933,15.3146981 13.4542673,15.402832 12.8666992,15.402832 L10.3803711,15.402832 L10.3803711,22.5 L8.97021484,22.5 Z M18.543457,22.5 L18.543457,11.3857422 L19.9350586,11.3857422 L19.9350586,12.9536133 C20.1082365,12.3784151 20.4205707,11.9470229 20.8720703,11.6594238 C21.32357,11.3718247 21.7905249,11.2218425 22.2729492,11.2094727 L22.2729492,12.6103516 C22.204915,12.5856119 22.1337894,12.5732422 22.0595703,12.5732422 C20.6432221,12.5732422 19.9350586,13.1175076 19.9350586,14.2060547 L19.9350586,22.5 L18.543457,22.5 Z" id="PR" fill="#2BD5A7"></path>
                    </g>
                    <path d="M42.6191406,15.2041016 L45.1328125,15.2128906 C45.8828162,15.21875 46.4189437,14.9594753 46.7412109,14.4350586 C47.0634782,13.9106419 47.2246094,13.0888728 47.2246094,11.9697266 C47.2246094,10.9267526 47.0517595,10.1621118 46.7060547,9.67578125 C46.3603498,9.18945069 45.835941,8.94628906 45.1328125,8.94628906 L42.6191406,8.94628906 L42.6191406,15.2041016 Z M41.2832031,23 L41.2832031,7.87402344 L44.9833984,7.87402344 C45.5107448,7.87402344 45.9794901,7.94580006 46.3896484,8.08935547 C46.7998067,8.23291087 47.1396471,8.42773314 47.4091797,8.67382812 C47.6787123,8.91992311 47.9013663,9.21874824 48.0771484,9.5703125 C48.2529306,9.92187676 48.377441,10.2924785 48.4506836,10.6821289 C48.5239261,11.0717793 48.5605469,11.4921852 48.5605469,11.9433594 C48.5605469,12.4062523 48.5297855,12.8339824 48.4682617,13.2265625 C48.406738,13.6191426 48.2924813,14.0087871 48.1254883,14.3955078 C47.9584953,14.7822285 47.7446302,15.1088854 47.4838867,15.3754883 C47.2231432,15.6420912 46.8789084,15.8588859 46.4511719,16.0258789 C46.0234354,16.1928719 45.5312528,16.2763672 44.9746094,16.2763672 L42.6191406,16.2763672 L42.6191406,23 L41.2832031,23 Z M51.4433594,14.5449219 L54.1328125,14.5449219 C54.5136738,14.5449219 54.8359362,14.4687508 55.0996094,14.3164062 C55.3632826,14.1640617 55.5610345,13.947267 55.6928711,13.6660156 C55.8247077,13.3847642 55.9169919,13.0917984 55.9697266,12.7871094 C56.0224612,12.4824204 56.0488281,12.133791 56.0488281,11.7412109 C56.0488281,11.4189437 56.032715,11.1289075 56.0004883,10.8710938 C55.9682616,10.61328 55.9096684,10.3613294 55.824707,10.1152344 C55.7397457,9.86913939 55.6269538,9.66259849 55.4863281,9.49560547 C55.3457024,9.32861245 55.161134,9.195313 54.9326172,9.09570312 C54.7041004,8.99609325 54.4375015,8.94628906 54.1328125,8.94628906 L51.4433594,8.94628906 L51.4433594,14.5449219 Z M50.1074219,23 L50.1074219,7.87402344 L54.1416016,7.87402344 C54.6513697,7.87402344 55.0996074,7.94433523 55.4863281,8.08496094 C55.8730488,8.22558664 56.1850574,8.41161994 56.4223633,8.64306641 C56.6596692,8.87451288 56.8515618,9.16161938 56.9980469,9.50439453 C57.144532,9.84716968 57.2456052,10.2016583 57.3012695,10.5678711 C57.3569339,10.9340839 57.3847656,11.3398415 57.3847656,11.7851562 C57.3847656,13.7129003 56.6816477,14.9345677 55.2753906,15.4501953 L57.6132812,23 L56.1894531,23 L53.9833984,15.6171875 L51.4433594,15.6171875 L51.4433594,23 L50.1074219,23 Z M59.4853516,23 L59.4853516,7.87402344 L64.7587891,7.87402344 L64.7587891,8.94628906 L60.8212891,8.94628906 L60.8212891,14.6767578 L63.6337891,14.6767578 L63.6337891,15.6875 L60.8212891,15.6875 L60.8212891,21.9277344 L64.7587891,21.9277344 L64.7587891,23 L59.4853516,23 Z" id="PRELAUNCHER-Copy" fill="#FFFFFF"></path>
                    <path d="M66.2832031,23 L66.2832031,7.87402344 L67.6191406,7.87402344 L67.6191406,21.9277344 L71.8466797,21.9277344 L71.8466797,23 L66.2832031,23 Z M74.4746094,18.1748047 L77.6386719,18.1748047 L76.0478516,9.26269531 L74.4746094,18.1748047 Z M73.5429688,23 L72.1982422,23 L75.1865234,7.87402344 L76.9267578,7.87402344 L79.9150391,23 L78.5615234,23 L77.8056641,19.0625 L74.3164062,19.0625 L73.5429688,23 Z M81.3828125,19.2822266 L81.3828125,7.87402344 L82.71875,7.87402344 L82.71875,19.5898438 C82.71875,20.4570356 82.9150371,21.1030252 83.3076172,21.527832 C83.7001973,21.9526388 84.3623,22.1650391 85.2939453,22.1650391 C86.172856,22.1650391 86.7998028,21.951174 87.1748047,21.5234375 C87.5498066,21.095701 87.7373047,20.4511762 87.7373047,19.5898438 L87.7373047,7.87402344 L89.0644531,7.87402344 L89.0644531,19.2822266 C89.0644531,21.9189585 87.8076298,23.2373047 85.2939453,23.2373047 C84.6904267,23.2373047 84.1586937,23.1669929 83.6987305,23.0263672 C83.2387672,22.8857415 82.863771,22.6967785 82.5737305,22.4594727 C82.28369,22.2221668 82.0478525,21.9321306 81.8662109,21.5893555 C81.6845694,21.2465803 81.5585941,20.889162 81.4882812,20.5170898 C81.4179684,20.1450177 81.3828125,19.7334007 81.3828125,19.2822266 L81.3828125,19.2822266 Z M91.5605469,23 L91.5605469,7.87402344 L92.5888672,7.87402344 L97.3789062,19.8535156 L97.3789062,7.87402344 L98.5126953,7.87402344 L98.5126953,23 L97.5107422,23 L92.7119141,11.2753906 L92.7119141,23 L91.5605469,23 Z M100.797852,18.6142578 L100.797852,12.2773438 C100.797852,11.7382786 100.833007,11.2490256 100.90332,10.8095703 C100.973633,10.370115 101.098144,9.95117387 101.276855,9.55273438 C101.455567,9.15429488 101.685545,8.81884902 101.966797,8.54638672 C102.248048,8.27392442 102.606931,8.05859454 103.043457,7.90039062 C103.479983,7.74218671 103.985349,7.66308594 104.55957,7.66308594 C106.92677,7.66308594 108.110352,9.20115649 108.110352,12.2773438 L108.110352,12.8925781 L106.835938,12.8925781 L106.835938,11.9785156 C106.835938,11.4921851 106.799317,11.0615253 106.726074,10.6865234 C106.652832,10.3115216 106.531251,9.97314604 106.361328,9.67138672 C106.191405,9.3696274 105.955568,9.1381844 105.653809,8.97705078 C105.352049,8.81591716 104.987307,8.73535156 104.55957,8.73535156 C104.17285,8.73535156 103.835939,8.78955024 103.548828,8.89794922 C103.261717,9.0063482 103.028809,9.15429594 102.850098,9.34179688 C102.671386,9.52929781 102.527833,9.76367047 102.419434,10.0449219 C102.311035,10.3261733 102.236328,10.6206039 102.195312,10.9282227 C102.154297,11.2358414 102.133789,11.5859355 102.133789,11.9785156 L102.133789,18.9130859 C102.133789,19.4111353 102.168945,19.8432599 102.239258,20.2094727 C102.309571,20.5756854 102.431151,20.9125961 102.604004,21.2202148 C102.776856,21.5278336 103.027342,21.7622062 103.355469,21.9233398 C103.683595,22.0844735 104.084959,22.1650391 104.55957,22.1650391 C104.987307,22.1650391 105.352049,22.0844735 105.653809,21.9233398 C105.955568,21.7622062 106.191405,21.5292984 106.361328,21.2246094 C106.531251,20.9199204 106.652832,20.58008 106.726074,20.2050781 C106.799317,19.8300762 106.835938,19.3994165 106.835938,18.9130859 L106.835938,17.8759766 L108.110352,17.8759766 L108.110352,18.6142578 C108.110352,19.1474636 108.078125,19.6337869 108.013672,20.0732422 C107.949218,20.5126975 107.833497,20.9331035 107.666504,21.3344727 C107.499511,21.7358419 107.284181,22.0727525 107.020508,22.3452148 C106.756835,22.6176771 106.416994,22.8344719 106.000977,22.9956055 C105.584959,23.1567391 105.104495,23.2373047 104.55957,23.2373047 C103.97363,23.2373047 103.459475,23.1567391 103.01709,22.9956055 C102.574705,22.8344719 102.214357,22.6176771 101.936035,22.3452148 C101.657713,22.0727525 101.43213,21.7358419 101.259277,21.3344727 C101.086425,20.9331035 100.966309,20.5141623 100.898926,20.0776367 C100.831543,19.6411111 100.797852,19.153323 100.797852,18.6142578 L100.797852,18.6142578 Z M110.149414,23 L110.149414,7.87402344 L111.485352,7.87402344 L111.485352,14.7207031 L116.143555,14.7207031 L116.143555,7.87402344 L117.479492,7.87402344 L117.479492,23 L116.143555,23 L116.143555,15.6523438 L111.485352,15.6523438 L111.485352,23 L110.149414,23 Z M120.045898,23 L120.045898,7.87402344 L125.319336,7.87402344 L125.319336,8.94628906 L121.381836,8.94628906 L121.381836,14.6767578 L124.194336,14.6767578 L124.194336,15.6875 L121.381836,15.6875 L121.381836,21.9277344 L125.319336,21.9277344 L125.319336,23 L120.045898,23 Z M128.369141,14.5449219 L131.058594,14.5449219 C131.439455,14.5449219 131.761717,14.4687508 132.025391,14.3164062 C132.289064,14.1640617 132.486816,13.947267 132.618652,13.6660156 C132.750489,13.3847642 132.842773,13.0917984 132.895508,12.7871094 C132.948242,12.4824204 132.974609,12.133791 132.974609,11.7412109 C132.974609,11.4189437 132.958496,11.1289075 132.92627,10.8710938 C132.894043,10.61328 132.83545,10.3613294 132.750488,10.1152344 C132.665527,9.86913939 132.552735,9.66259849 132.412109,9.49560547 C132.271484,9.32861245 132.086915,9.195313 131.858398,9.09570312 C131.629882,8.99609325 131.363283,8.94628906 131.058594,8.94628906 L128.369141,8.94628906 L128.369141,14.5449219 Z M127.033203,23 L127.033203,7.87402344 L131.067383,7.87402344 C131.577151,7.87402344 132.025389,7.94433523 132.412109,8.08496094 C132.79883,8.22558664 133.110839,8.41161994 133.348145,8.64306641 C133.58545,8.87451288 133.777343,9.16161938 133.923828,9.50439453 C134.070313,9.84716968 134.171386,10.2016583 134.227051,10.5678711 C134.282715,10.9340839 134.310547,11.3398415 134.310547,11.7851562 C134.310547,13.7129003 133.607429,14.9345677 132.201172,15.4501953 L134.539062,23 L133.115234,23 L130.90918,15.6171875 L128.369141,15.6171875 L128.369141,23 L127.033203,23 Z" id="PRELAUNCHER" fill="#2BD5A7"></path>
                </g>
            </g>
        </g>
    </g>
</svg>