<?xml version="1.0" encoding="UTF-8" standalone="no"?>
<svg width="62px" height="62px" viewBox="0 0 62 62" version="1.1" xmlns="http://www.w3.org/2000/svg" xmlns:xlink="http://www.w3.org/1999/xlink" xmlns:sketch="http://www.bohemiancoding.com/sketch/ns">
    <!-- Generator: Sketch 3.3.2 (12043) - http://www.bohemiancoding.com/sketch -->
    <title>Logo</title>
    <desc>Created with Sketch.</desc>
    <defs></defs>
    <g id="Page-1" stroke="none" stroke-width="1" fill="none" fill-rule="evenodd" sketch:type="MSPage">
        <g id="Landing-Page" sketch:type="MSArtboardGroup" transform="translate(-769.000000, -139.000000)">
            <g id="Header" sketch:type="MSLayerGroup" transform="translate(520.000000, 140.000000)">
                <g id="Logo" transform="translate(250.000000, 0.000000)" sketch:type="MSShapeGroup">
                    <path d="M0,60 L0,40 L60,40 L60,60" id="Rectangle-3-Copy-3" stroke="#FFFFFF" stroke-width="2" transform="translate(30.000000, 50.000000) scale(1, -1) translate(-30.000000, -50.000000) "></path>
                    <path d="M0,20 L0,0 L60,0 L60,20" id="Rectangle-3-Copy-2" stroke="#FFFFFF" stroke-width="2"></path>
                    <path d="M20.7607422,28.5419922 L26.0673828,28.5605469 C27.6507241,28.5729167 28.7825487,28.0255589 29.4628906,26.918457 C30.1432326,25.8113551 30.4833984,24.0765092 30.4833984,21.7138672 C30.4833984,19.5120333 30.1184932,17.8977916 29.3886719,16.8710938 C28.6588505,15.8443959 27.5517652,15.3310547 26.0673828,15.3310547 L20.7607422,15.3310547 L20.7607422,28.5419922 Z M17.9404297,45 L17.9404297,13.0673828 L25.7519531,13.0673828 C26.8652399,13.0673828 27.8548134,13.2189112 28.7207031,13.5219727 C29.5865929,13.8250341 30.3040336,14.2363255 30.8730469,14.7558594 C31.4420601,15.2753932 31.9121075,15.9062463 32.2832031,16.6484375 C32.6542987,17.3906287 32.9171542,18.1730102 33.0717773,18.9956055 C33.2264005,19.8182007 33.3037109,20.7057244 33.3037109,21.6582031 C33.3037109,22.6354216 33.2387702,23.5384073 33.1088867,24.3671875 C32.9790033,25.1959677 32.7377947,26.0185506 32.3852539,26.8349609 C32.0327131,27.6513713 31.5812202,28.3409803 31.0307617,28.9038086 C30.4803032,29.4666369 29.7535852,29.9243146 28.8505859,30.2768555 C27.9475866,30.6293963 26.9085345,30.8056641 25.7333984,30.8056641 L20.7607422,30.8056641 L20.7607422,45 L17.9404297,45 Z M37.0869141,45 L37.0869141,22.7714844 L39.8701172,22.7714844 L39.8701172,25.9072266 C40.2164731,24.7568302 40.8411413,23.8940458 41.7441406,23.3188477 C42.6471399,22.7436495 43.5810499,22.443685 44.5458984,22.4189453 L44.5458984,25.2207031 C44.40983,25.1712237 44.2675789,25.1464844 44.1191406,25.1464844 C41.2864442,25.1464844 39.8701172,26.2350152 39.8701172,28.4121094 L39.8701172,45 L37.0869141,45 Z" id="PR" fill="#2BD5A7"></path>
                </g>
            </g>
        </g>
    </g>
</svg>