<?xml version="1.0" encoding="UTF-8" standalone="no"?>
<svg width="356px" height="181px" viewBox="0 0 356 181" version="1.1" xmlns="http://www.w3.org/2000/svg" xmlns:xlink="http://www.w3.org/1999/xlink">
    <!-- Generator: Sketch 40 (33762) - http://www.bohemiancoding.com/sketch -->
    <title>logo</title>
    <desc>Created with Sketch.</desc>
    <defs></defs>
    <g id="Main" stroke="none" stroke-width="1" fill="none" fill-rule="evenodd">
        <g id="Landing-Page" transform="translate(-620.000000, -139.000000)">
            <g id="Header" transform="translate(520.000000, 140.000000)">
                <g id="logo" transform="translate(100.000000, 0.000000)">
                    <g id="Logo-Text" transform="translate(0.000000, 120.000000)">
                        <path d="M95.6777637,58.8 L95.6777637,1.15322266 L100.76917,1.15322266 L100.76917,54.7134766 L116.880791,54.7134766 L116.880791,58.8 L95.6777637,58.8 Z M126.896123,40.4106445 L138.954717,40.4106445 L132.891924,6.44560547 L126.896123,40.4106445 Z M123.345537,58.8 L118.220635,58.8 L129.609307,1.15322266 L136.241533,1.15322266 L147.630205,58.8 L142.471807,58.8 L139.591143,43.79375 L126.293193,43.79375 L123.345537,58.8 Z M153.224053,44.6311523 L153.224053,1.15322266 L158.315459,1.15322266 L158.315459,45.8035156 C158.315459,49.1084801 159.063531,51.5704183 160.559697,53.1894043 C162.055864,54.8083903 164.579211,55.6178711 168.129814,55.6178711 C171.479441,55.6178711 173.868805,54.8028076 175.297979,53.1726562 C176.727152,51.5425049 177.441729,49.0861492 177.441729,45.8035156 L177.441729,1.15322266 L182.499639,1.15322266 L182.499639,44.6311523 C182.499639,54.6800307 177.709745,59.7043945 168.129814,59.7043945 C165.829738,59.7043945 163.803244,59.4364285 162.050273,58.9004883 C160.297302,58.3645481 158.86815,57.6443893 157.762773,56.7399902 C156.657397,55.8355912 155.758594,54.7302311 155.066338,53.423877 C154.374082,52.1175228 153.893976,50.7553619 153.626006,49.3373535 C153.358036,47.9193451 153.224053,46.3506271 153.224053,44.6311523 L153.224053,44.6311523 Z M192.012529,58.8 L192.012529,1.15322266 L195.931572,1.15322266 L214.186943,46.8083984 L214.186943,1.15322266 L218.507939,1.15322266 L218.507939,58.8 L214.689385,58.8 L196.400518,14.1162109 L196.400518,58.8 L192.012529,58.8 Z M227.216924,42.0854492 L227.216924,17.9347656 C227.216924,15.8803283 227.350907,14.015731 227.618877,12.340918 C227.886847,10.6661049 228.36137,9.06947374 229.042461,7.55097656 C229.723552,6.03247939 230.600024,4.75405793 231.671904,3.71567383 C232.743785,2.67728973 234.111528,1.85664364 235.775176,1.25371094 C237.438823,0.650778235 239.36483,0.349316406 241.553252,0.349316406 C250.574912,0.349316406 255.085674,6.21107419 255.085674,17.9347656 L255.085674,20.2794922 L250.22874,20.2794922 L250.22874,16.7958984 C250.22874,14.9424386 250.089175,13.3011465 249.810039,11.8719727 C249.530904,10.4427988 249.067546,9.15321213 248.419951,8.00317383 C247.772357,6.85313553 246.873554,5.97108054 245.723516,5.35698242 C244.573477,4.7428843 243.183403,4.43583984 241.553252,4.43583984 C240.079416,4.43583984 238.795412,4.64239702 237.701201,5.05551758 C236.60699,5.46863813 235.719352,6.03248341 235.038262,6.74707031 C234.357171,7.46165722 233.810074,8.35487745 233.396953,9.42675781 C232.983833,10.4986382 232.699119,11.6207461 232.542803,12.7931152 C232.386487,13.9654844 232.30833,15.2997321 232.30833,16.7958984 L232.30833,43.2243164 C232.30833,45.1224379 232.442313,46.7693127 232.710283,48.1649902 C232.978253,49.5606678 233.441611,50.8446719 234.100371,52.017041 C234.759131,53.1894102 235.71376,54.0826304 236.964287,54.6967285 C238.214814,55.3108266 239.744454,55.6178711 241.553252,55.6178711 C243.183403,55.6178711 244.573477,55.3108266 245.723516,54.6967285 C246.873554,54.0826304 247.772357,53.1949928 248.419951,52.0337891 C249.067546,50.8725853 249.530904,49.577416 249.810039,48.1482422 C250.089175,46.7190684 250.22874,45.0777762 250.22874,43.2243164 L250.22874,39.2717773 L255.085674,39.2717773 L255.085674,42.0854492 C255.085674,44.1175557 254.962856,45.9709877 254.717217,47.6458008 C254.471578,49.3206138 254.03055,50.9228276 253.394121,52.4524902 C252.757692,53.9821528 251.937046,55.2661569 250.932158,56.304541 C249.92727,57.3429251 248.632101,58.1691538 247.046611,58.783252 C245.461122,59.3973501 243.63002,59.7043945 241.553252,59.7043945 C239.320168,59.7043945 237.360666,59.3973501 235.674688,58.783252 C233.988709,58.1691538 232.615383,57.3429251 231.554668,56.304541 C230.493953,55.2661569 229.634229,53.9821528 228.975469,52.4524902 C228.316709,50.9228276 227.858934,49.3261965 227.602129,47.6625488 C227.345324,45.9989012 227.216924,44.1398866 227.216924,42.0854492 L227.216924,42.0854492 Z M262.856768,58.8 L262.856768,1.15322266 L267.948174,1.15322266 L267.948174,27.2466797 L285.701104,27.2466797 L285.701104,1.15322266 L290.79251,1.15322266 L290.79251,58.8 L285.701104,58.8 L285.701104,30.7972656 L267.948174,30.7972656 L267.948174,58.8 L262.856768,58.8 Z M300.573369,58.8 L300.573369,1.15322266 L320.671025,1.15322266 L320.671025,5.23974609 L305.664775,5.23974609 L305.664775,27.0791992 L316.383525,27.0791992 L316.383525,30.93125 L305.664775,30.93125 L305.664775,54.7134766 L320.671025,54.7134766 L320.671025,58.8 L300.573369,58.8 Z M332.29417,26.5767578 L342.543975,26.5767578 C343.995479,26.5767578 345.223657,26.2864612 346.228545,25.7058594 C347.233433,25.1252575 347.987087,24.2990288 348.489531,23.2271484 C348.991975,22.1552681 349.343681,21.0387428 349.544658,19.8775391 C349.745636,18.7163353 349.846123,17.3876702 349.846123,15.8915039 C349.846123,14.6633077 349.784714,13.5579476 349.661895,12.5753906 C349.539075,11.5928336 349.31577,10.6326219 348.991973,9.69472656 C348.668175,8.75683125 348.238313,7.96968092 347.702373,7.33325195 C347.166433,6.69682299 346.463022,6.18880398 345.592119,5.80917969 C344.721216,5.42955539 343.705178,5.23974609 342.543975,5.23974609 L332.29417,5.23974609 L332.29417,26.5767578 Z M327.202764,58.8 L327.202764,1.15322266 L342.577471,1.15322266 C344.520254,1.15322266 346.228538,1.42118873 347.702373,1.95712891 C349.176209,2.49306909 350.365308,3.20206265 351.269707,4.08413086 C352.174106,4.96619907 352.90543,6.06039386 353.463701,7.36674805 C354.021972,8.67310223 354.407173,10.0240978 354.619316,11.4197754 C354.831459,12.8154529 354.937529,14.3618405 354.937529,16.0589844 C354.937529,23.405831 352.257869,28.0617415 346.898467,30.0268555 L355.808428,58.8 L350.382061,58.8 L341.974541,30.6632813 L332.29417,30.6632813 L332.29417,58.8 L327.202764,58.8 Z" id="LAUNCHER" fill="#2BD5A7"></path>
                        <path d="M5.10193359,29.0889648 L14.6818164,29.1224609 C17.540164,29.1447918 19.5834053,28.1566669 20.8116016,26.1580566 C22.0397978,24.1594464 22.6538867,21.0275929 22.6538867,16.7624023 C22.6538867,12.7875127 21.9951368,9.87338166 20.6776172,8.01992187 C19.3600976,6.16646209 17.3615173,5.23974609 14.6818164,5.23974609 L5.10193359,5.23974609 L5.10193359,29.0889648 Z M0.0105273438,58.8 L0.0105273438,1.15322266 L14.1123828,1.15322266 C16.1221585,1.15322266 17.908599,1.42677135 19.4717578,1.97387695 C21.0349167,2.52098255 22.330086,3.26347187 23.3573047,4.20136719 C24.3845234,5.1392625 25.2330826,6.2781183 25.9030078,7.61796875 C26.572933,8.9578192 27.0474563,10.3702237 27.3265918,11.8552246 C27.6057273,13.3402255 27.745293,14.9424393 27.745293,16.6619141 C27.745293,18.4260505 27.6280578,20.0561774 27.393584,21.5523437 C27.1591102,23.0485101 26.7236653,24.5334887 26.0872363,26.0073242 C25.4508074,27.4811597 24.6357439,28.7260854 23.6420215,29.7421387 C22.6482991,30.7581919 21.3363818,31.5844206 19.7062305,32.2208496 C18.0760791,32.8572786 16.2003166,33.1754883 14.0788867,33.1754883 L5.10193359,33.1754883 L5.10193359,58.8 L0.0105273438,58.8 Z M38.7320117,26.5767578 L48.9818164,26.5767578 C50.4333211,26.5767578 51.6614989,26.2864612 52.6663867,25.7058594 C53.6712746,25.1252575 54.4249291,24.2990288 54.927373,23.2271484 C55.429817,22.1552681 55.7815224,21.0387428 55.9825,19.8775391 C56.1834776,18.7163353 56.2839648,17.3876702 56.2839648,15.8915039 C56.2839648,14.6633077 56.222556,13.5579476 56.0997363,12.5753906 C55.9769167,11.5928336 55.7536116,10.6326219 55.4298145,9.69472656 C55.1060173,8.75683125 54.676155,7.96968092 54.1402148,7.33325195 C53.6042747,6.69682299 52.9008637,6.18880398 52.0299609,5.80917969 C51.1590581,5.42955539 50.1430201,5.23974609 48.9818164,5.23974609 L38.7320117,5.23974609 L38.7320117,26.5767578 Z M33.6406055,58.8 L33.6406055,1.15322266 L49.0153125,1.15322266 C50.9580957,1.15322266 52.6663793,1.42118873 54.1402148,1.95712891 C55.6140503,2.49306909 56.8031498,3.20206265 57.7075488,4.08413086 C58.6119479,4.96619907 59.3432719,6.06039386 59.901543,7.36674805 C60.459814,8.67310223 60.8450152,10.0240978 61.0571582,11.4197754 C61.2693012,12.8154529 61.3753711,14.3618405 61.3753711,16.0589844 C61.3753711,23.405831 58.6957104,28.0617415 53.3363086,30.0268555 L62.2462695,58.8 L56.8199023,58.8 L48.4123828,30.6632812 L38.7320117,30.6632812 L38.7320117,58.8 L33.6406055,58.8 Z M69.3809375,58.8 L69.3809375,1.15322266 L89.4785938,1.15322266 L89.4785938,5.23974609 L74.4723438,5.23974609 L74.4723438,27.0791992 L85.1910938,27.0791992 L85.1910938,30.93125 L74.4723438,30.93125 L74.4723438,54.7134766 L89.4785938,54.7134766 L89.4785938,58.8 L69.3809375,58.8 Z" id="PRE" fill="#FFFFFF"></path>
                    </g>
                    <g id="Logo" transform="translate(150.000000, 0.000000)">
                        <polyline id="Rectangle-3-Copy-3" stroke="#FFFFFF" stroke-width="2" transform="translate(29.400000, 49.000000) scale(1, -1) translate(-29.400000, -49.000000) " points="0 58.8 0 39.2 58.8 39.2 58.8 58.8"></polyline>
                        <polyline id="Rectangle-3-Copy-2" stroke="#FFFFFF" stroke-width="2" points="0 19.6 0 0 58.8 0 58.8 19.6"></polyline>
                        <path d="M20.3455273,27.9711523 L25.5460352,27.9893359 C27.0977096,28.0014584 28.2068977,27.4650477 28.8736328,26.3800879 C29.5403679,25.295128 29.8737305,23.594979 29.8737305,21.2795898 C29.8737305,19.1217926 29.5161234,17.5398358 28.8008984,16.5336719 C28.0856735,15.527508 27.0007299,15.0244336 25.5460352,15.0244336 L20.3455273,15.0244336 L20.3455273,27.9711523 Z M17.5816211,44.1 L17.5816211,12.8060352 L25.2369141,12.8060352 C26.3279351,12.8060352 27.2977171,12.954533 28.1462891,13.2515332 C28.994861,13.5485334 29.6979529,13.951599 30.2555859,14.4607422 C30.8132189,14.9698854 31.2738654,15.5881214 31.6375391,16.3154688 C32.0012128,17.0428161 32.2588111,17.80955 32.4103418,18.6156934 C32.5618725,19.4218367 32.6376367,20.2916099 32.6376367,21.2250391 C32.6376367,22.1827131 32.5739948,23.0676392 32.446709,23.8798438 C32.3194232,24.6920483 32.0830388,25.4981796 31.7375488,26.2982617 C31.3920588,27.0983438 30.9495958,27.7741607 30.4101465,28.3257324 C29.8706972,28.8773042 29.1585135,29.3258284 28.2735742,29.6713184 C27.3886349,30.0168084 26.3703638,30.1895508 25.2187305,30.1895508 L20.3455273,30.1895508 L20.3455273,44.1 L17.5816211,44.1 Z M36.3451758,44.1 L36.3451758,22.3160547 L39.0727148,22.3160547 L39.0727148,25.389082 C39.4121436,24.2616936 40.0243185,23.4161649 40.9092578,22.8524707 C41.7941971,22.2887765 42.7094289,21.9948113 43.6549805,21.9705664 L43.6549805,24.7162891 C43.5216334,24.6677992 43.3822273,24.6435547 43.2367578,24.6435547 C40.4607153,24.6435547 39.0727148,25.7103149 39.0727148,27.8438672 L39.0727148,44.1 L36.3451758,44.1 Z" id="PR" fill="#2BD5A7" fill-rule="evenodd"></path>
                    </g>
                </g>
            </g>
        </g>
    </g>
</svg>